#N canvas 557 125 1280 620 12;
#X text 20 8 mrt2~ — Magenta RT v2 music model. Set Pd SR to 48 kHz (Media → Audio Settings)., f 120;
#N canvas 820 392 542 300 init 0;
#X obj 50 19 loadbang;
#X msg 72 99 assets ~/Documents/Magenta/magenta-rt-v2/resources;
#X msg 46 139 model ~/Documents/Magenta/magenta-rt-v2/models/mrt2_base/mrt2_base.mlxfn;
#X obj 209 245 s to_mrt2;
#X text 59 57 Insert custom model paths \, if you want \, don't need to relaod assets;
#X connect 1 0 3 0;
#X connect 2 0 3 0;
#X restore 20 42 pd init;
#X text 20 75 ── Prompts (edit msg boxes) ──;
#X text 446 75 ── Sampling ──;
#X text 664 64 ── Guidance (CFG) ──;
#X text 920 75 ── Output & Config ──;
#X msg 28 100 prompt 0 piano 1;
#X msg 340 100 prompt 0;
#X msg 340 128 prompt 1;
#X msg 340 156 prompt 2;
#X msg 340 184 prompt 3;
#X obj 28 215 s to_mrt2;
#X obj 446 100 hsl 100 15 0 3 0 1 empty empty Temp 0 -9 0 10 #fcfcfc #000000 #000000 4300 1;
#X msg 446 125 temperature \$1;
#X obj 446 150 s to_mrt2;
#X obj 576 100 nbx 5 14 1 250 0 1 empty empty TopK 0 -9 0 10 #fcfcfc #000000 #000000 100 256;
#X msg 576 125 topk \$1;
#X obj 576 150 s to_mrt2;
#X obj 669 89 vsl 15 50 -1 7 0 1 empty empty Style 0 -8 0 10 #fcfcfc #000000 #000000 2100 1;
#X obj 733 89 vsl 15 50 -1 7 0 1 empty empty Notes 0 -8 0 10 #fcfcfc #000000 #000000 2100 1;
#X obj 783 89 vsl 15 50 -1 7 0 1 empty empty Drums 0 -8 0 10 #fcfcfc #000000 #000000 3200 1;
#X msg 668 154 cfgmusiccoca \$1;
#X msg 728 179 cfgnotes \$1;
#X msg 778 204 cfgdrums \$1;
#X obj 668 226 s to_mrt2;
#X obj 885 105 vsl 15 80 -60 0 0 1 empty empty Vol 0 -8 0 10 #fcfcfc #000000 #000000 7900 1;
#X obj 965 100 tgl 15 0 empty empty Mute 17 7 0 10 #fcfcfc #000000 #000000 0 1;
#X msg 965 125 mute \$1;
#X obj 965 150 s to_mrt2;
#X obj 965 175 tgl 15 0 empty empty Bypass 17 7 0 10 #fcfcfc #000000 #000000 0 1;
#X msg 965 200 bypass \$1;
#X obj 965 225 s to_mrt2;
#X obj 1045 100 tgl 15 0 empty empty Drumless 17 7 0 10 #fcfcfc #000000 #000000 0 1;
#X msg 1045 125 drumless \$1;
#X obj 1045 150 s to_mrt2;
#X obj 111 292 bng 15 250 50 0 empty empty Reset 17 7 0 10 #fcfcfc #000000 #000000;
#X msg 111 317 reset;
#X obj 111 342 s to_mrt2;
#X msg 885 200 volume \$1;
#X obj 885 225 s to_mrt2;
#X text 1130 95 Buffer;
#X obj 1130 115 hradio 15 1 0 3 empty empty empty 0 -9 0 10 #fcfcfc #000000 #000000 0;
#X obj 1130 140 sel 0 1 2;
#X msg 1130 170 buffersize 2048;
#X msg 1130 195 buffersize 4096;
#X msg 1130 220 buffersize 8192;
#X obj 1130 250 s to_mrt2;
#X text 20 260 ── Engine ──;
#X obj 20 290 r to_mrt2;
#X obj 20 320 mrt2~;
#X obj 20 360 dac~;
#X text 446 260 ── MIDI ──;
#X obj 446 290 hradio 15 1 0 2 empty empty empty 0 -9 0 10 #fcfcfc #000000 #000000 0;
#X text 486 290 Jam / Solo;
#X obj 446 315 sel 0 1;
#X msg 446 345 unmaskwidth 0;
#X msg 566 345 unmaskwidth 127;
#X obj 446 375 s to_mrt2;
#X obj 750 289 tgl 15 0 empty empty MIDIGate 17 7 0 10 #fcfcfc #000000 #000000 0 1;
#X msg 750 314 midigate \$1;
#X obj 750 344 s to_mrt2;
#X text 446 400 ── Note Entry ──;
#X obj 539 439 nbx 5 14 0 127 0 0 empty empty Note 0 -9 0 10 #fcfcfc #000000 #000000 0 256;
#X msg 539 499 noteon \$1;
#X obj 441 468 del 200;
#X msg 441 498 noteoff \$1;
#X obj 539 534 s to_mrt2;
#X msg 28 128 prompt 1 jazz-drums 1;
#X msg 28 156 prompt 2 dubstep 0.5;
#X msg 28 184 prompt 3 synth-pad 0.7;
#X obj 65 319 print;
#X text 100 42 <-- loadbang: assets + model;
#X connect 6 0 11 0;
#X connect 7 0 11 0;
#X connect 8 0 11 0;
#X connect 9 0 11 0;
#X connect 10 0 11 0;
#X connect 12 0 13 0;
#X connect 13 0 14 0;
#X connect 15 0 16 0;
#X connect 16 0 17 0;
#X connect 18 0 21 0;
#X connect 19 0 22 0;
#X connect 20 0 23 0;
#X connect 21 0 24 0;
#X connect 22 0 24 0;
#X connect 23 0 24 0;
#X connect 25 0 38 0;
#X connect 26 0 27 0;
#X connect 27 0 28 0;
#X connect 29 0 30 0;
#X connect 30 0 31 0;
#X connect 32 0 33 0;
#X connect 33 0 34 0;
#X connect 35 0 36 0;
#X connect 36 0 37 0;
#X connect 38 0 39 0;
#X connect 41 0 42 0;
#X connect 42 0 43 0;
#X connect 42 1 44 0;
#X connect 42 2 45 0;
#X connect 43 0 46 0;
#X connect 44 0 46 0;
#X connect 45 0 46 0;
#X connect 48 0 49 0;
#X connect 48 0 70 0;
#X connect 49 0 50 0;
#X connect 49 1 50 1;
#X connect 52 0 54 0;
#X connect 54 0 55 0;
#X connect 54 1 56 0;
#X connect 55 0 57 0;
#X connect 56 0 57 0;
#X connect 58 0 59 0;
#X connect 59 0 60 0;
#X connect 62 0 63 0;
#X connect 62 0 64 0;
#X connect 63 0 66 0;
#X connect 64 0 65 0;
#X connect 65 0 66 0;
#X connect 67 0 11 0;
#X connect 68 0 11 0;
#X connect 69 0 11 0;
